<?xml version="1.0" encoding="UTF-8" standalone="no"?>
<!DOCTYPE svg PUBLIC "-//W3C//DTD SVG 1.1//EN"
 "http://www.w3.org/Graphics/SVG/1.1/DTD/svg11.dtd">
<!-- Generated by graphviz version 10.0.1 (20240210.2158)
 -->
<!-- Title: G Pages: 1 -->
<svg width="1341pt" height="890pt"
 viewBox="0.00 0.00 1340.88 890.00" xmlns="http://www.w3.org/2000/svg" xmlns:xlink="http://www.w3.org/1999/xlink">
<g id="graph0" class="graph" transform="scale(1 1) rotate(0) translate(4 886)">
<title>G</title>
<polygon fill="white" stroke="none" points="-4,4 -4,-886 1336.88,-886 1336.88,4 -4,4"/>
<!-- tree -->
<g id="node1" class="node">
<title>tree</title>
<polygon fill="none" stroke="black" points="416.5,-875.75 355.5,-875.75 355.5,-839.75 416.5,-839.75 416.5,-875.75"/>
<text text-anchor="middle" x="386" y="-852.33" font-family="Times New Roman,serif" font-size="14.00">size : 51</text>
</g>
<!-- 12588560 -->
<g id="node2" class="node">
<title>12588560</title>
<path fill="none" stroke="green" d="M446.75,-834C446.75,-834 501.25,-834 501.25,-834 507.25,-834 513.25,-840 513.25,-846 513.25,-846 513.25,-869.5 513.25,-869.5 513.25,-875.5 507.25,-881.5 501.25,-881.5 501.25,-881.5 446.75,-881.5 446.75,-881.5 440.75,-881.5 434.75,-875.5 434.75,-869.5 434.75,-869.5 434.75,-846 434.75,-846 434.75,-840 440.75,-834 446.75,-834"/>
<text text-anchor="middle" x="474" y="-864.2" font-family="Times New Roman,serif" font-size="14.00">animal</text>
<polyline fill="none" stroke="green" points="434.75,-857.75 513.25,-857.75"/>
<text text-anchor="middle" x="455.88" y="-840.45" font-family="Times New Roman,serif" font-size="14.00">YES</text>
<polyline fill="none" stroke="green" points="477,-834 477,-857.75"/>
<text text-anchor="middle" x="495.12" y="-840.45" font-family="Times New Roman,serif" font-size="14.00">NO</text>
</g>
<!-- 12614144 -->
<g id="node3" class="node">
<title>12614144</title>
<path fill="none" stroke="green" d="M336.75,-749.5C336.75,-749.5 391.25,-749.5 391.25,-749.5 397.25,-749.5 403.25,-755.5 403.25,-761.5 403.25,-761.5 403.25,-785 403.25,-785 403.25,-791 397.25,-797 391.25,-797 391.25,-797 336.75,-797 336.75,-797 330.75,-797 324.75,-791 324.75,-785 324.75,-785 324.75,-761.5 324.75,-761.5 324.75,-755.5 330.75,-749.5 336.75,-749.5"/>
<text text-anchor="middle" x="364" y="-779.7" font-family="Times New Roman,serif" font-size="14.00">mammal</text>
<polyline fill="none" stroke="green" points="324.75,-773.25 403.25,-773.25"/>
<text text-anchor="middle" x="345.88" y="-755.95" font-family="Times New Roman,serif" font-size="14.00">YES</text>
<polyline fill="none" stroke="green" points="367,-749.5 367,-773.25"/>
<text text-anchor="middle" x="385.12" y="-755.95" font-family="Times New Roman,serif" font-size="14.00">NO</text>
</g>
<!-- 12588560&#45;&gt;12614144 -->
<g id="edge1" class="edge">
<title>12588560:YES&#45;&gt;12614144</title>
<path fill="none" stroke="green" d="M434,-845.75C427.24,-845.75 429.44,-838.59 425,-833.5 416.61,-823.87 406.92,-813.98 397.77,-805.11"/>
<polygon fill="green" stroke="green" points="400.32,-802.7 390.67,-798.33 395.49,-807.77 400.32,-802.7"/>
</g>
<!-- 12619504 -->
<g id="node22" class="node">
<title>12619504</title>
<path fill="none" stroke="green" d="M546.62,-749.5C546.62,-749.5 605.38,-749.5 605.38,-749.5 611.38,-749.5 617.38,-755.5 617.38,-761.5 617.38,-761.5 617.38,-785 617.38,-785 617.38,-791 611.38,-797 605.38,-797 605.38,-797 546.62,-797 546.62,-797 540.62,-797 534.62,-791 534.62,-785 534.62,-785 534.62,-761.5 534.62,-761.5 534.62,-755.5 540.62,-749.5 546.62,-749.5"/>
<text text-anchor="middle" x="576" y="-779.7" font-family="Times New Roman,serif" font-size="14.00">leads Matan</text>
<polyline fill="none" stroke="green" points="534.62,-773.25 617.38,-773.25"/>
<text text-anchor="middle" x="556.75" y="-755.95" font-family="Times New Roman,serif" font-size="14.00">YES</text>
<polyline fill="none" stroke="green" points="578.88,-749.5 578.88,-773.25"/>
<text text-anchor="middle" x="598" y="-755.95" font-family="Times New Roman,serif" font-size="14.00">NO</text>
</g>
<!-- 12588560&#45;&gt;12619504 -->
<g id="edge20" class="edge">
<title>12588560:NO&#45;&gt;12619504</title>
<path fill="none" stroke="red" d="M514,-845.75C536.04,-845.75 552.01,-826.11 562.21,-807.42"/>
<polygon fill="red" stroke="red" points="565.27,-809.13 566.62,-798.62 559.01,-806 565.27,-809.13"/>
</g>
<!-- 12614400 -->
<g id="node4" class="node">
<title>12614400</title>
<path fill="none" stroke="green" d="M187.75,-665C187.75,-665 242.25,-665 242.25,-665 248.25,-665 254.25,-671 254.25,-677 254.25,-677 254.25,-700.5 254.25,-700.5 254.25,-706.5 248.25,-712.5 242.25,-712.5 242.25,-712.5 187.75,-712.5 187.75,-712.5 181.75,-712.5 175.75,-706.5 175.75,-700.5 175.75,-700.5 175.75,-677 175.75,-677 175.75,-671 181.75,-665 187.75,-665"/>
<text text-anchor="middle" x="215" y="-695.2" font-family="Times New Roman,serif" font-size="14.00">have fur</text>
<polyline fill="none" stroke="green" points="175.75,-688.75 254.25,-688.75"/>
<text text-anchor="middle" x="196.88" y="-671.45" font-family="Times New Roman,serif" font-size="14.00">YES</text>
<polyline fill="none" stroke="green" points="218,-665 218,-688.75"/>
<text text-anchor="middle" x="236.12" y="-671.45" font-family="Times New Roman,serif" font-size="14.00">NO</text>
</g>
<!-- 12614144&#45;&gt;12614400 -->
<g id="edge2" class="edge">
<title>12614144:YES&#45;&gt;12614400</title>
<path fill="none" stroke="green" d="M324,-761.25C292.51,-761.25 263.06,-740.13 242.72,-720.85"/>
<polygon fill="green" stroke="green" points="245.22,-718.4 235.66,-713.83 240.29,-723.37 245.22,-718.4"/>
</g>
<!-- 12619632 -->
<g id="node17" class="node">
<title>12619632</title>
<path fill="none" stroke="green" d="M343.62,-665C343.62,-665 426.38,-665 426.38,-665 432.38,-665 438.38,-671 438.38,-677 438.38,-677 438.38,-700.5 438.38,-700.5 438.38,-706.5 432.38,-712.5 426.38,-712.5 426.38,-712.5 343.62,-712.5 343.62,-712.5 337.62,-712.5 331.62,-706.5 331.62,-700.5 331.62,-700.5 331.62,-677 331.62,-677 331.62,-671 337.62,-665 343.62,-665"/>
<text text-anchor="middle" x="385" y="-695.2" font-family="Times New Roman,serif" font-size="14.00">have spider web</text>
<polyline fill="none" stroke="green" points="331.62,-688.75 438.38,-688.75"/>
<text text-anchor="middle" x="359.75" y="-671.45" font-family="Times New Roman,serif" font-size="14.00">YES</text>
<polyline fill="none" stroke="green" points="387.88,-665 387.88,-688.75"/>
<text text-anchor="middle" x="413" y="-671.45" font-family="Times New Roman,serif" font-size="14.00">NO</text>
</g>
<!-- 12614144&#45;&gt;12619632 -->
<g id="edge15" class="edge">
<title>12614144:NO&#45;&gt;12619632</title>
<path fill="none" stroke="red" d="M385,-749C385,-740.98 385,-732.36 385,-724.23"/>
<polygon fill="red" stroke="red" points="388.5,-724.34 385,-714.34 381.5,-724.34 388.5,-724.34"/>
</g>
<!-- 12614656 -->
<g id="node5" class="node">
<title>12614656</title>
<path fill="none" stroke="green" d="M62.75,-580.5C62.75,-580.5 117.25,-580.5 117.25,-580.5 123.25,-580.5 129.25,-586.5 129.25,-592.5 129.25,-592.5 129.25,-616 129.25,-616 129.25,-622 123.25,-628 117.25,-628 117.25,-628 62.75,-628 62.75,-628 56.75,-628 50.75,-622 50.75,-616 50.75,-616 50.75,-592.5 50.75,-592.5 50.75,-586.5 56.75,-580.5 62.75,-580.5"/>
<text text-anchor="middle" x="90" y="-610.7" font-family="Times New Roman,serif" font-size="14.00">like honey</text>
<polyline fill="none" stroke="green" points="50.75,-604.25 129.25,-604.25"/>
<text text-anchor="middle" x="71.88" y="-586.95" font-family="Times New Roman,serif" font-size="14.00">YES</text>
<polyline fill="none" stroke="green" points="93,-580.5 93,-604.25"/>
<text text-anchor="middle" x="111.12" y="-586.95" font-family="Times New Roman,serif" font-size="14.00">NO</text>
</g>
<!-- 12614400&#45;&gt;12614656 -->
<g id="edge3" class="edge">
<title>12614400:YES&#45;&gt;12614656</title>
<path fill="none" stroke="green" d="M175,-676.75C148.65,-676.75 126.21,-656.38 111.02,-637.39"/>
<polygon fill="green" stroke="green" points="113.88,-635.36 105.07,-629.48 108.28,-639.57 113.88,-635.36"/>
</g>
<!-- 12619144 -->
<g id="node14" class="node">
<title>12619144</title>
<path fill="none" stroke="green" d="M183.75,-580.5C183.75,-580.5 288.25,-580.5 288.25,-580.5 294.25,-580.5 300.25,-586.5 300.25,-592.5 300.25,-592.5 300.25,-616 300.25,-616 300.25,-622 294.25,-628 288.25,-628 288.25,-628 183.75,-628 183.75,-628 177.75,-628 171.75,-622 171.75,-616 171.75,-616 171.75,-592.5 171.75,-592.5 171.75,-586.5 177.75,-580.5 183.75,-580.5"/>
<text text-anchor="middle" x="236" y="-610.7" font-family="Times New Roman,serif" font-size="14.00">negative intellegence</text>
<polyline fill="none" stroke="green" points="171.75,-604.25 300.25,-604.25"/>
<text text-anchor="middle" x="205.38" y="-586.95" font-family="Times New Roman,serif" font-size="14.00">YES</text>
<polyline fill="none" stroke="green" points="239,-580.5 239,-604.25"/>
<text text-anchor="middle" x="269.62" y="-586.95" font-family="Times New Roman,serif" font-size="14.00">NO</text>
</g>
<!-- 12614400&#45;&gt;12619144 -->
<g id="edge12" class="edge">
<title>12614400:NO&#45;&gt;12619144</title>
<path fill="none" stroke="red" d="M236,-664.5C236,-656.48 236,-647.86 236,-639.73"/>
<polygon fill="red" stroke="red" points="239.5,-639.84 236,-629.84 232.5,-639.84 239.5,-639.84"/>
</g>
<!-- 12614912 -->
<g id="node6" class="node">
<title>12614912</title>
<path fill="none" stroke="green" d="M12,-501.75C12,-501.75 42,-501.75 42,-501.75 48,-501.75 54,-507.75 54,-513.75 54,-513.75 54,-525.75 54,-525.75 54,-531.75 48,-537.75 42,-537.75 42,-537.75 12,-537.75 12,-537.75 6,-537.75 0,-531.75 0,-525.75 0,-525.75 0,-513.75 0,-513.75 0,-507.75 6,-501.75 12,-501.75"/>
<text text-anchor="middle" x="27" y="-514.45" font-family="Times New Roman,serif" font-size="14.00">bear</text>
</g>
<!-- 12614656&#45;&gt;12614912 -->
<g id="edge4" class="edge">
<title>12614656:YES&#45;&gt;12614912</title>
<path fill="none" stroke="green" d="M72,-580C72,-567.44 65.51,-555.87 57.46,-546.36"/>
<polygon fill="green" stroke="green" points="60.22,-544.19 50.8,-539.33 55.13,-549 60.22,-544.19"/>
</g>
<!-- 12615168 -->
<g id="node7" class="node">
<title>12615168</title>
<path fill="none" stroke="green" d="M83.75,-496C83.75,-496 138.25,-496 138.25,-496 144.25,-496 150.25,-502 150.25,-508 150.25,-508 150.25,-531.5 150.25,-531.5 150.25,-537.5 144.25,-543.5 138.25,-543.5 138.25,-543.5 83.75,-543.5 83.75,-543.5 77.75,-543.5 71.75,-537.5 71.75,-531.5 71.75,-531.5 71.75,-508 71.75,-508 71.75,-502 77.75,-496 83.75,-496"/>
<text text-anchor="middle" x="111" y="-526.2" font-family="Times New Roman,serif" font-size="14.00">have main</text>
<polyline fill="none" stroke="green" points="71.75,-519.75 150.25,-519.75"/>
<text text-anchor="middle" x="92.88" y="-502.45" font-family="Times New Roman,serif" font-size="14.00">YES</text>
<polyline fill="none" stroke="green" points="114,-496 114,-519.75"/>
<text text-anchor="middle" x="132.12" y="-502.45" font-family="Times New Roman,serif" font-size="14.00">NO</text>
</g>
<!-- 12614656&#45;&gt;12615168 -->
<g id="edge5" class="edge">
<title>12614656:NO&#45;&gt;12615168</title>
<path fill="none" stroke="red" d="M111,-580C111,-571.98 111,-563.36 111,-555.23"/>
<polygon fill="red" stroke="red" points="114.5,-555.34 111,-545.34 107.5,-555.34 114.5,-555.34"/>
</g>
<!-- 12615424 -->
<g id="node8" class="node">
<title>12615424</title>
<path fill="none" stroke="green" d="M50,-417.25C50,-417.25 80,-417.25 80,-417.25 86,-417.25 92,-423.25 92,-429.25 92,-429.25 92,-441.25 92,-441.25 92,-447.25 86,-453.25 80,-453.25 80,-453.25 50,-453.25 50,-453.25 44,-453.25 38,-447.25 38,-441.25 38,-441.25 38,-429.25 38,-429.25 38,-423.25 44,-417.25 50,-417.25"/>
<text text-anchor="middle" x="64.62" y="-429.95" font-family="Times New Roman,serif" font-size="14.00">lion</text>
</g>
<!-- 12615168&#45;&gt;12615424 -->
<g id="edge6" class="edge">
<title>12615168:YES&#45;&gt;12615424</title>
<path fill="none" stroke="green" d="M93,-495.5C93,-484.39 88.92,-473.13 83.88,-463.46"/>
<polygon fill="green" stroke="green" points="87,-461.85 78.94,-454.97 80.95,-465.37 87,-461.85"/>
</g>
<!-- 12615680 -->
<g id="node9" class="node">
<title>12615680</title>
<path fill="none" stroke="green" d="M122.38,-411.5C122.38,-411.5 197.62,-411.5 197.62,-411.5 203.62,-411.5 209.62,-417.5 209.62,-423.5 209.62,-423.5 209.62,-447 209.62,-447 209.62,-453 203.62,-459 197.62,-459 197.62,-459 122.38,-459 122.38,-459 116.38,-459 110.38,-453 110.38,-447 110.38,-447 110.38,-423.5 110.38,-423.5 110.38,-417.5 116.38,-411.5 122.38,-411.5"/>
<text text-anchor="middle" x="160" y="-441.7" font-family="Times New Roman,serif" font-size="14.00">have long neck</text>
<polyline fill="none" stroke="green" points="110.38,-435.25 209.62,-435.25"/>
<text text-anchor="middle" x="136.5" y="-417.95" font-family="Times New Roman,serif" font-size="14.00">YES</text>
<polyline fill="none" stroke="green" points="162.62,-411.5 162.62,-435.25"/>
<text text-anchor="middle" x="185.75" y="-417.95" font-family="Times New Roman,serif" font-size="14.00">NO</text>
</g>
<!-- 12615168&#45;&gt;12615680 -->
<g id="edge7" class="edge">
<title>12615168:NO&#45;&gt;12615680</title>
<path fill="none" stroke="red" d="M132,-495.5C132,-486.64 134.59,-477.69 138.2,-469.52"/>
<polygon fill="red" stroke="red" points="141.29,-471.15 142.7,-460.65 135.05,-467.98 141.29,-471.15"/>
</g>
<!-- 12615936 -->
<g id="node10" class="node">
<title>12615936</title>
<path fill="none" stroke="green" d="M104,-332.75C104,-332.75 134,-332.75 134,-332.75 140,-332.75 146,-338.75 146,-344.75 146,-344.75 146,-356.75 146,-356.75 146,-362.75 140,-368.75 134,-368.75 134,-368.75 104,-368.75 104,-368.75 98,-368.75 92,-362.75 92,-356.75 92,-356.75 92,-344.75 92,-344.75 92,-338.75 98,-332.75 104,-332.75"/>
<text text-anchor="middle" x="118.75" y="-345.45" font-family="Times New Roman,serif" font-size="14.00">giraph</text>
</g>
<!-- 12615680&#45;&gt;12615936 -->
<g id="edge8" class="edge">
<title>12615680:YES&#45;&gt;12615936</title>
<path fill="none" stroke="green" d="M136,-411C136,-400.54 133.52,-389.43 130.46,-379.69"/>
<polygon fill="green" stroke="green" points="133.82,-378.71 127.21,-370.44 127.22,-381.03 133.82,-378.71"/>
</g>
<!-- 12619048 -->
<g id="node11" class="node">
<title>12619048</title>
<path fill="none" stroke="green" d="M175.75,-327C175.75,-327 230.25,-327 230.25,-327 236.25,-327 242.25,-333 242.25,-339 242.25,-339 242.25,-362.5 242.25,-362.5 242.25,-368.5 236.25,-374.5 230.25,-374.5 230.25,-374.5 175.75,-374.5 175.75,-374.5 169.75,-374.5 163.75,-368.5 163.75,-362.5 163.75,-362.5 163.75,-339 163.75,-339 163.75,-333 169.75,-327 175.75,-327"/>
<text text-anchor="middle" x="203" y="-357.2" font-family="Times New Roman,serif" font-size="14.00">grey</text>
<polyline fill="none" stroke="green" points="163.75,-350.75 242.25,-350.75"/>
<text text-anchor="middle" x="184.88" y="-333.45" font-family="Times New Roman,serif" font-size="14.00">YES</text>
<polyline fill="none" stroke="green" points="206,-327 206,-350.75"/>
<text text-anchor="middle" x="224.12" y="-333.45" font-family="Times New Roman,serif" font-size="14.00">NO</text>
</g>
<!-- 12615680&#45;&gt;12619048 -->
<g id="edge9" class="edge">
<title>12615680:NO&#45;&gt;12619048</title>
<path fill="none" stroke="red" d="M186,-411C186,-402.71 187.56,-394.01 189.73,-385.91"/>
<polygon fill="red" stroke="red" points="193.06,-386.99 192.66,-376.4 186.37,-384.92 193.06,-386.99"/>
</g>
<!-- 12619080 -->
<g id="node12" class="node">
<title>12619080</title>
<path fill="none" stroke="green" d="M152,-248.25C152,-248.25 182,-248.25 182,-248.25 188,-248.25 194,-254.25 194,-260.25 194,-260.25 194,-272.25 194,-272.25 194,-278.25 188,-284.25 182,-284.25 182,-284.25 152,-284.25 152,-284.25 146,-284.25 140,-278.25 140,-272.25 140,-272.25 140,-260.25 140,-260.25 140,-254.25 146,-248.25 152,-248.25"/>
<text text-anchor="middle" x="166.88" y="-260.95" font-family="Times New Roman,serif" font-size="14.00">mouse</text>
</g>
<!-- 12619048&#45;&gt;12619080 -->
<g id="edge10" class="edge">
<title>12619048:YES&#45;&gt;12619080</title>
<path fill="none" stroke="green" d="M185,-326.5C185,-316.07 182.41,-305.03 179.2,-295.35"/>
<polygon fill="green" stroke="green" points="182.55,-294.3 175.79,-286.14 175.98,-296.73 182.55,-294.3"/>
</g>
<!-- 12619112 -->
<g id="node13" class="node">
<title>12619112</title>
<path fill="none" stroke="green" d="M223.88,-248.25C223.88,-248.25 260.12,-248.25 260.12,-248.25 266.12,-248.25 272.12,-254.25 272.12,-260.25 272.12,-260.25 272.12,-272.25 272.12,-272.25 272.12,-278.25 266.12,-284.25 260.12,-284.25 260.12,-284.25 223.88,-284.25 223.88,-284.25 217.88,-284.25 211.88,-278.25 211.88,-272.25 211.88,-272.25 211.88,-260.25 211.88,-260.25 211.88,-254.25 217.88,-248.25 223.88,-248.25"/>
<text text-anchor="middle" x="242" y="-260.95" font-family="Times New Roman,serif" font-size="14.00">monkey</text>
</g>
<!-- 12619048&#45;&gt;12619112 -->
<g id="edge11" class="edge">
<title>12619048:NO&#45;&gt;12619112</title>
<path fill="none" stroke="red" d="M224,-326.5C224,-316.07 226.59,-305.03 229.8,-295.35"/>
<polygon fill="red" stroke="red" points="233.02,-296.73 233.21,-286.14 226.45,-294.3 233.02,-296.73"/>
</g>
<!-- 12619176 -->
<g id="node15" class="node">
<title>12619176</title>
<path fill="none" stroke="green" d="M180.12,-501.75C180.12,-501.75 229.88,-501.75 229.88,-501.75 235.88,-501.75 241.88,-507.75 241.88,-513.75 241.88,-513.75 241.88,-525.75 241.88,-525.75 241.88,-531.75 235.88,-537.75 229.88,-537.75 229.88,-537.75 180.12,-537.75 180.12,-537.75 174.12,-537.75 168.12,-531.75 168.12,-525.75 168.12,-525.75 168.12,-513.75 168.12,-513.75 168.12,-507.75 174.12,-501.75 180.12,-501.75"/>
<text text-anchor="middle" x="205" y="-514.45" font-family="Times New Roman,serif" font-size="14.00">Babashkin</text>
</g>
<!-- 12619144&#45;&gt;12619176 -->
<g id="edge13" class="edge">
<title>12619144:YES&#45;&gt;12619176</title>
<path fill="none" stroke="green" d="M205,-580C205,-570.09 205,-559.25 205,-549.58"/>
<polygon fill="green" stroke="green" points="208.5,-549.63 205,-539.63 201.5,-549.63 208.5,-549.63"/>
</g>
<!-- 12619856 -->
<g id="node16" class="node">
<title>12619856</title>
<path fill="none" stroke="green" d="M272,-501.75C272,-501.75 306,-501.75 306,-501.75 312,-501.75 318,-507.75 318,-513.75 318,-513.75 318,-525.75 318,-525.75 318,-531.75 312,-537.75 306,-537.75 306,-537.75 272,-537.75 272,-537.75 266,-537.75 260,-531.75 260,-525.75 260,-525.75 260,-513.75 260,-513.75 260,-507.75 266,-501.75 272,-501.75"/>
<text text-anchor="middle" x="289" y="-514.45" font-family="Times New Roman,serif" font-size="14.00">dolphin</text>
</g>
<!-- 12619144&#45;&gt;12619856 -->
<g id="edge14" class="edge">
<title>12619144:NO&#45;&gt;12619856</title>
<path fill="none" stroke="red" d="M270,-580C270,-569.52 272.73,-558.47 276.12,-548.79"/>
<polygon fill="red" stroke="red" points="279.34,-550.17 279.73,-539.58 272.82,-547.62 279.34,-550.17"/>
</g>
<!-- 12619248 -->
<g id="node18" class="node">
<title>12619248</title>
<path fill="none" stroke="green" d="M330,-586.25C330,-586.25 360,-586.25 360,-586.25 366,-586.25 372,-592.25 372,-598.25 372,-598.25 372,-610.25 372,-610.25 372,-616.25 366,-622.25 360,-622.25 360,-622.25 330,-622.25 330,-622.25 324,-622.25 318,-616.25 318,-610.25 318,-610.25 318,-598.25 318,-598.25 318,-592.25 324,-586.25 330,-586.25"/>
<text text-anchor="middle" x="344.75" y="-598.95" font-family="Times New Roman,serif" font-size="14.00">spider</text>
</g>
<!-- 12619632&#45;&gt;12619248 -->
<g id="edge16" class="edge">
<title>12619632:YES&#45;&gt;12619248</title>
<path fill="none" stroke="green" d="M360,-664.5C360,-654.13 357.81,-643.04 355.11,-633.29"/>
<polygon fill="green" stroke="green" points="358.54,-632.55 352.25,-624.03 351.86,-634.62 358.54,-632.55"/>
</g>
<!-- 12619888 -->
<g id="node19" class="node">
<title>12619888</title>
<path fill="none" stroke="green" d="M401.75,-580.5C401.75,-580.5 456.25,-580.5 456.25,-580.5 462.25,-580.5 468.25,-586.5 468.25,-592.5 468.25,-592.5 468.25,-616 468.25,-616 468.25,-622 462.25,-628 456.25,-628 456.25,-628 401.75,-628 401.75,-628 395.75,-628 389.75,-622 389.75,-616 389.75,-616 389.75,-592.5 389.75,-592.5 389.75,-586.5 395.75,-580.5 401.75,-580.5"/>
<text text-anchor="middle" x="429" y="-610.7" font-family="Times New Roman,serif" font-size="14.00">no legs</text>
<polyline fill="none" stroke="green" points="389.75,-604.25 468.25,-604.25"/>
<text text-anchor="middle" x="410.88" y="-586.95" font-family="Times New Roman,serif" font-size="14.00">YES</text>
<polyline fill="none" stroke="green" points="432,-580.5 432,-604.25"/>
<text text-anchor="middle" x="450.12" y="-586.95" font-family="Times New Roman,serif" font-size="14.00">NO</text>
</g>
<!-- 12619632&#45;&gt;12619888 -->
<g id="edge17" class="edge">
<title>12619632:NO&#45;&gt;12619888</title>
<path fill="none" stroke="red" d="M413,-664.5C413,-656.17 414.49,-647.41 416.56,-639.25"/>
<polygon fill="red" stroke="red" points="419.92,-640.25 419.36,-629.67 413.2,-638.29 419.92,-640.25"/>
</g>
<!-- 12620208 -->
<g id="node20" class="node">
<title>12620208</title>
<path fill="none" stroke="green" d="M375,-501.75C375,-501.75 405,-501.75 405,-501.75 411,-501.75 417,-507.75 417,-513.75 417,-513.75 417,-525.75 417,-525.75 417,-531.75 411,-537.75 405,-537.75 405,-537.75 375,-537.75 375,-537.75 369,-537.75 363,-531.75 363,-525.75 363,-525.75 363,-513.75 363,-513.75 363,-507.75 369,-501.75 375,-501.75"/>
<text text-anchor="middle" x="389.75" y="-514.45" font-family="Times New Roman,serif" font-size="14.00">snake</text>
</g>
<!-- 12619888&#45;&gt;12620208 -->
<g id="edge18" class="edge">
<title>12619888:YES&#45;&gt;12620208</title>
<path fill="none" stroke="green" d="M411,-580C411,-569.3 407.92,-558.1 404.11,-548.35"/>
<polygon fill="green" stroke="green" points="407.44,-547.23 400.24,-539.46 401.03,-550.03 407.44,-547.23"/>
</g>
<!-- 12619472 -->
<g id="node21" class="node">
<title>12619472</title>
<path fill="none" stroke="green" d="M447,-501.75C447,-501.75 477,-501.75 477,-501.75 483,-501.75 489,-507.75 489,-513.75 489,-513.75 489,-525.75 489,-525.75 489,-531.75 483,-537.75 477,-537.75 477,-537.75 447,-537.75 447,-537.75 441,-537.75 435,-531.75 435,-525.75 435,-525.75 435,-513.75 435,-513.75 435,-507.75 441,-501.75 447,-501.75"/>
<text text-anchor="middle" x="462" y="-514.45" font-family="Times New Roman,serif" font-size="14.00">lizard</text>
</g>
<!-- 12619888&#45;&gt;12619472 -->
<g id="edge19" class="edge">
<title>12619888:NO&#45;&gt;12619472</title>
<path fill="none" stroke="red" d="M450,-580C450,-569.85 451.71,-558.92 453.84,-549.24"/>
<polygon fill="red" stroke="red" points="457.21,-550.21 456.2,-539.66 450.41,-548.54 457.21,-550.21"/>
</g>
<!-- 12619344 -->
<g id="node23" class="node">
<title>12619344</title>
<path fill="none" stroke="green" d="M492.38,-665C492.38,-665 621.62,-665 621.62,-665 627.62,-665 633.62,-671 633.62,-677 633.62,-677 633.62,-700.5 633.62,-700.5 633.62,-706.5 627.62,-712.5 621.62,-712.5 621.62,-712.5 492.38,-712.5 492.38,-712.5 486.38,-712.5 480.38,-706.5 480.38,-700.5 480.38,-700.5 480.38,-677 480.38,-677 480.38,-671 486.38,-665 492.38,-665"/>
<text text-anchor="middle" x="557" y="-695.2" font-family="Times New Roman,serif" font-size="14.00">have surname like animal</text>
<polyline fill="none" stroke="green" points="480.38,-688.75 633.62,-688.75"/>
<text text-anchor="middle" x="520" y="-671.45" font-family="Times New Roman,serif" font-size="14.00">YES</text>
<polyline fill="none" stroke="green" points="559.62,-665 559.62,-688.75"/>
<text text-anchor="middle" x="596.25" y="-671.45" font-family="Times New Roman,serif" font-size="14.00">NO</text>
</g>
<!-- 12619504&#45;&gt;12619344 -->
<g id="edge21" class="edge">
<title>12619504:YES&#45;&gt;12619344</title>
<path fill="none" stroke="green" d="M557,-749C557,-740.98 557,-732.36 557,-724.23"/>
<polygon fill="green" stroke="green" points="560.5,-724.34 557,-714.34 553.5,-724.34 560.5,-724.34"/>
</g>
<!-- 12620016 -->
<g id="node26" class="node">
<title>12620016</title>
<path fill="none" stroke="green" d="M678.88,-665C678.88,-665 757.12,-665 757.12,-665 763.12,-665 769.12,-671 769.12,-677 769.12,-677 769.12,-700.5 769.12,-700.5 769.12,-706.5 763.12,-712.5 757.12,-712.5 757.12,-712.5 678.88,-712.5 678.88,-712.5 672.88,-712.5 666.88,-706.5 666.88,-700.5 666.88,-700.5 666.88,-677 666.88,-677 666.88,-671 672.88,-665 678.88,-665"/>
<text text-anchor="middle" x="718" y="-695.2" font-family="Times New Roman,serif" font-size="14.00">no hair on head</text>
<polyline fill="none" stroke="green" points="666.88,-688.75 769.12,-688.75"/>
<text text-anchor="middle" x="693.5" y="-671.45" font-family="Times New Roman,serif" font-size="14.00">YES</text>
<polyline fill="none" stroke="green" points="720.12,-665 720.12,-688.75"/>
<text text-anchor="middle" x="744.25" y="-671.45" font-family="Times New Roman,serif" font-size="14.00">NO</text>
</g>
<!-- 12619504&#45;&gt;12620016 -->
<g id="edge24" class="edge">
<title>12619504:NO&#45;&gt;12620016</title>
<path fill="none" stroke="red" d="M618,-761.25C647.56,-761.25 674.41,-740.32 692.82,-721.11"/>
<polygon fill="red" stroke="red" points="695.26,-723.63 699.41,-713.89 690.08,-718.92 695.26,-723.63"/>
</g>
<!-- 12619568 -->
<g id="node24" class="node">
<title>12619568</title>
<path fill="none" stroke="green" d="M497.88,-586.25C497.88,-586.25 534.12,-586.25 534.12,-586.25 540.12,-586.25 546.12,-592.25 546.12,-598.25 546.12,-598.25 546.12,-610.25 546.12,-610.25 546.12,-616.25 540.12,-622.25 534.12,-622.25 534.12,-622.25 497.88,-622.25 497.88,-622.25 491.88,-622.25 485.88,-616.25 485.88,-610.25 485.88,-610.25 485.88,-598.25 485.88,-598.25 485.88,-592.25 491.88,-586.25 497.88,-586.25"/>
<text text-anchor="middle" x="516" y="-598.95" font-family="Times New Roman,serif" font-size="14.00">Tulenev</text>
</g>
<!-- 12619344&#45;&gt;12619568 -->
<g id="edge22" class="edge">
<title>12619344:YES&#45;&gt;12619568</title>
<path fill="none" stroke="green" d="M520,-664.5C520,-654.57 519.43,-643.72 518.73,-634.06"/>
<polygon fill="green" stroke="green" points="522.22,-633.79 517.91,-624.11 515.24,-634.36 522.22,-633.79"/>
</g>
<!-- 12619664 -->
<g id="node25" class="node">
<title>12619664</title>
<path fill="none" stroke="green" d="M576.62,-586.25C576.62,-586.25 623.38,-586.25 623.38,-586.25 629.38,-586.25 635.38,-592.25 635.38,-598.25 635.38,-598.25 635.38,-610.25 635.38,-610.25 635.38,-616.25 629.38,-622.25 623.38,-622.25 623.38,-622.25 576.62,-622.25 576.62,-622.25 570.62,-622.25 564.62,-616.25 564.62,-610.25 564.62,-610.25 564.62,-598.25 564.62,-598.25 564.62,-592.25 570.62,-586.25 576.62,-586.25"/>
<text text-anchor="middle" x="600" y="-598.95" font-family="Times New Roman,serif" font-size="14.00">Lukashov</text>
</g>
<!-- 12619344&#45;&gt;12619664 -->
<g id="edge23" class="edge">
<title>12619344:NO&#45;&gt;12619664</title>
<path fill="none" stroke="red" d="M596,-664.5C596,-654.57 596.57,-643.72 597.27,-634.06"/>
<polygon fill="red" stroke="red" points="600.76,-634.36 598.09,-624.11 593.78,-633.79 600.76,-634.36"/>
</g>
<!-- 12620112 -->
<g id="node27" class="node">
<title>12620112</title>
<path fill="none" stroke="green" d="M665.75,-580.5C665.75,-580.5 720.25,-580.5 720.25,-580.5 726.25,-580.5 732.25,-586.5 732.25,-592.5 732.25,-592.5 732.25,-616 732.25,-616 732.25,-622 726.25,-628 720.25,-628 720.25,-628 665.75,-628 665.75,-628 659.75,-628 653.75,-622 653.75,-616 653.75,-616 653.75,-592.5 653.75,-592.5 653.75,-586.5 659.75,-580.5 665.75,-580.5"/>
<text text-anchor="middle" x="693" y="-610.7" font-family="Times New Roman,serif" font-size="14.00">man</text>
<polyline fill="none" stroke="green" points="653.75,-604.25 732.25,-604.25"/>
<text text-anchor="middle" x="674.88" y="-586.95" font-family="Times New Roman,serif" font-size="14.00">YES</text>
<polyline fill="none" stroke="green" points="696,-580.5 696,-604.25"/>
<text text-anchor="middle" x="714.12" y="-586.95" font-family="Times New Roman,serif" font-size="14.00">NO</text>
</g>
<!-- 12620016&#45;&gt;12620112 -->
<g id="edge25" class="edge">
<title>12620016:YES&#45;&gt;12620112</title>
<path fill="none" stroke="green" d="M693,-664.5C693,-656.48 693,-647.86 693,-639.73"/>
<polygon fill="green" stroke="green" points="696.5,-639.84 693,-629.84 689.5,-639.84 696.5,-639.84"/>
</g>
<!-- 12619408 -->
<g id="node36" class="node">
<title>12619408</title>
<path fill="none" stroke="green" d="M792,-580.5C792,-580.5 856,-580.5 856,-580.5 862,-580.5 868,-586.5 868,-592.5 868,-592.5 868,-616 868,-616 868,-622 862,-628 856,-628 856,-628 792,-628 792,-628 786,-628 780,-622 780,-616 780,-616 780,-592.5 780,-592.5 780,-586.5 786,-580.5 792,-580.5"/>
<text text-anchor="middle" x="824" y="-610.7" font-family="Times New Roman,serif" font-size="14.00">freezing cold</text>
<polyline fill="none" stroke="green" points="780,-604.25 868,-604.25"/>
<text text-anchor="middle" x="803.12" y="-586.95" font-family="Times New Roman,serif" font-size="14.00">YES</text>
<polyline fill="none" stroke="green" points="826.25,-580.5 826.25,-604.25"/>
<text text-anchor="middle" x="846.88" y="-586.95" font-family="Times New Roman,serif" font-size="14.00">NO</text>
</g>
<!-- 12620016&#45;&gt;12619408 -->
<g id="edge34" class="edge">
<title>12620016:NO&#45;&gt;12619408</title>
<path fill="none" stroke="red" d="M769,-676.75C789.91,-676.75 803.97,-657.3 812.64,-638.68"/>
<polygon fill="red" stroke="red" points="815.78,-640.24 816.43,-629.66 809.33,-637.52 815.78,-640.24"/>
</g>
<!-- 12619824 -->
<g id="node28" class="node">
<title>12619824</title>
<path fill="none" stroke="green" d="M530.5,-496C530.5,-496 621.5,-496 621.5,-496 627.5,-496 633.5,-502 633.5,-508 633.5,-508 633.5,-531.5 633.5,-531.5 633.5,-537.5 627.5,-543.5 621.5,-543.5 621.5,-543.5 530.5,-543.5 530.5,-543.5 524.5,-543.5 518.5,-537.5 518.5,-531.5 518.5,-531.5 518.5,-508 518.5,-508 518.5,-502 524.5,-496 530.5,-496"/>
<text text-anchor="middle" x="576" y="-526.2" font-family="Times New Roman,serif" font-size="14.00">Russian president</text>
<polyline fill="none" stroke="green" points="518.5,-519.75 633.5,-519.75"/>
<text text-anchor="middle" x="548.62" y="-502.45" font-family="Times New Roman,serif" font-size="14.00">YES</text>
<polyline fill="none" stroke="green" points="578.75,-496 578.75,-519.75"/>
<text text-anchor="middle" x="605.88" y="-502.45" font-family="Times New Roman,serif" font-size="14.00">NO</text>
</g>
<!-- 12620112&#45;&gt;12619824 -->
<g id="edge26" class="edge">
<title>12620112:YES&#45;&gt;12619824</title>
<path fill="none" stroke="green" d="M653,-592.25C646.24,-592.25 648.57,-584.97 644,-580 634.9,-570.11 624.25,-560.19 614.12,-551.37"/>
<polygon fill="green" stroke="green" points="616.44,-548.74 606.56,-544.91 611.89,-554.07 616.44,-548.74"/>
</g>
<!-- 12619760 -->
<g id="node33" class="node">
<title>12619760</title>
<path fill="none" stroke="green" d="M682.38,-496C682.38,-496 745.62,-496 745.62,-496 751.62,-496 757.62,-502 757.62,-508 757.62,-508 757.62,-531.5 757.62,-531.5 757.62,-537.5 751.62,-543.5 745.62,-543.5 745.62,-543.5 682.38,-543.5 682.38,-543.5 676.38,-543.5 670.38,-537.5 670.38,-531.5 670.38,-531.5 670.38,-508 670.38,-508 670.38,-502 676.38,-496 682.38,-496"/>
<text text-anchor="middle" x="714" y="-526.2" font-family="Times New Roman,serif" font-size="14.00">transparency</text>
<polyline fill="none" stroke="green" points="670.38,-519.75 757.62,-519.75"/>
<text text-anchor="middle" x="693.5" y="-502.45" font-family="Times New Roman,serif" font-size="14.00">YES</text>
<polyline fill="none" stroke="green" points="716.62,-496 716.62,-519.75"/>
<text text-anchor="middle" x="736.75" y="-502.45" font-family="Times New Roman,serif" font-size="14.00">NO</text>
</g>
<!-- 12620112&#45;&gt;12619760 -->
<g id="edge31" class="edge">
<title>12620112:NO&#45;&gt;12619760</title>
<path fill="none" stroke="red" d="M714,-580C714,-571.98 714,-563.36 714,-555.23"/>
<polygon fill="red" stroke="red" points="717.5,-555.34 714,-545.34 710.5,-555.34 717.5,-555.34"/>
</g>
<!-- 12619920 -->
<g id="node29" class="node">
<title>12619920</title>
<path fill="none" stroke="green" d="M507,-417.25C507,-417.25 537,-417.25 537,-417.25 543,-417.25 549,-423.25 549,-429.25 549,-429.25 549,-441.25 549,-441.25 549,-447.25 543,-453.25 537,-453.25 537,-453.25 507,-453.25 507,-453.25 501,-453.25 495,-447.25 495,-441.25 495,-441.25 495,-429.25 495,-429.25 495,-423.25 501,-417.25 507,-417.25"/>
<text text-anchor="middle" x="521.75" y="-429.95" font-family="Times New Roman,serif" font-size="14.00">Putin</text>
</g>
<!-- 12619824&#45;&gt;12619920 -->
<g id="edge27" class="edge">
<title>12619824:YES&#45;&gt;12619920</title>
<path fill="none" stroke="green" d="M549,-495.5C549,-484.46 545.07,-473.22 540.21,-463.54"/>
<polygon fill="green" stroke="green" points="543.39,-462.06 535.45,-455.05 537.29,-465.48 543.39,-462.06"/>
</g>
<!-- 12619952 -->
<g id="node30" class="node">
<title>12619952</title>
<path fill="none" stroke="green" d="M578.75,-411.5C578.75,-411.5 633.25,-411.5 633.25,-411.5 639.25,-411.5 645.25,-417.5 645.25,-423.5 645.25,-423.5 645.25,-447 645.25,-447 645.25,-453 639.25,-459 633.25,-459 633.25,-459 578.75,-459 578.75,-459 572.75,-459 566.75,-453 566.75,-447 566.75,-447 566.75,-423.5 566.75,-423.5 566.75,-417.5 572.75,-411.5 578.75,-411.5"/>
<text text-anchor="middle" x="606" y="-441.7" font-family="Times New Roman,serif" font-size="14.00">Tatarin</text>
<polyline fill="none" stroke="green" points="566.75,-435.25 645.25,-435.25"/>
<text text-anchor="middle" x="587.88" y="-417.95" font-family="Times New Roman,serif" font-size="14.00">YES</text>
<polyline fill="none" stroke="green" points="609,-411.5 609,-435.25"/>
<text text-anchor="middle" x="627.12" y="-417.95" font-family="Times New Roman,serif" font-size="14.00">NO</text>
</g>
<!-- 12619824&#45;&gt;12619952 -->
<g id="edge28" class="edge">
<title>12619824:NO&#45;&gt;12619952</title>
<path fill="none" stroke="red" d="M606,-495.5C606,-487.48 606,-478.86 606,-470.73"/>
<polygon fill="red" stroke="red" points="609.5,-470.84 606,-460.84 602.5,-470.84 609.5,-470.84"/>
</g>
<!-- 12620176 -->
<g id="node31" class="node">
<title>12620176</title>
<path fill="none" stroke="green" d="M553.62,-332.75C553.62,-332.75 588.38,-332.75 588.38,-332.75 594.38,-332.75 600.38,-338.75 600.38,-344.75 600.38,-344.75 600.38,-356.75 600.38,-356.75 600.38,-362.75 594.38,-368.75 588.38,-368.75 588.38,-368.75 553.62,-368.75 553.62,-368.75 547.62,-368.75 541.62,-362.75 541.62,-356.75 541.62,-356.75 541.62,-344.75 541.62,-344.75 541.62,-338.75 547.62,-332.75 553.62,-332.75"/>
<text text-anchor="middle" x="571" y="-345.45" font-family="Times New Roman,serif" font-size="14.00">Rustam</text>
</g>
<!-- 12619952&#45;&gt;12620176 -->
<g id="edge29" class="edge">
<title>12619952:YES&#45;&gt;12620176</title>
<path fill="none" stroke="green" d="M588,-411C588,-400.54 585.52,-389.43 582.46,-379.69"/>
<polygon fill="green" stroke="green" points="585.82,-378.71 579.21,-370.44 579.22,-381.03 585.82,-378.71"/>
</g>
<!-- 12619728 -->
<g id="node32" class="node">
<title>12619728</title>
<path fill="none" stroke="green" d="M630,-332.75C630,-332.75 660,-332.75 660,-332.75 666,-332.75 672,-338.75 672,-344.75 672,-344.75 672,-356.75 672,-356.75 672,-362.75 666,-368.75 660,-368.75 660,-368.75 630,-368.75 630,-368.75 624,-368.75 618,-362.75 618,-356.75 618,-356.75 618,-344.75 618,-344.75 618,-338.75 624,-332.75 630,-332.75"/>
<text text-anchor="middle" x="645" y="-345.45" font-family="Times New Roman,serif" font-size="14.00">Egor</text>
</g>
<!-- 12619952&#45;&gt;12619728 -->
<g id="edge30" class="edge">
<title>12619952:NO&#45;&gt;12619728</title>
<path fill="none" stroke="red" d="M627,-411C627,-400.57 629.59,-389.53 632.8,-379.85"/>
<polygon fill="red" stroke="red" points="636.02,-381.23 636.21,-370.64 629.45,-378.8 636.02,-381.23"/>
</g>
<!-- 12619536 -->
<g id="node34" class="node">
<title>12619536</title>
<path fill="none" stroke="green" d="M674.88,-417.25C674.88,-417.25 711.12,-417.25 711.12,-417.25 717.12,-417.25 723.12,-423.25 723.12,-429.25 723.12,-429.25 723.12,-441.25 723.12,-441.25 723.12,-447.25 717.12,-453.25 711.12,-453.25 711.12,-453.25 674.88,-453.25 674.88,-453.25 668.88,-453.25 662.88,-447.25 662.88,-441.25 662.88,-441.25 662.88,-429.25 662.88,-429.25 662.88,-423.25 668.88,-417.25 674.88,-417.25"/>
<text text-anchor="middle" x="693" y="-429.95" font-family="Times New Roman,serif" font-size="14.00">window</text>
</g>
<!-- 12619760&#45;&gt;12619536 -->
<g id="edge32" class="edge">
<title>12619760:YES&#45;&gt;12619536</title>
<path fill="none" stroke="green" d="M693,-495.5C693,-485.59 693,-474.75 693,-465.08"/>
<polygon fill="green" stroke="green" points="696.5,-465.13 693,-455.13 689.5,-465.13 696.5,-465.13"/>
</g>
<!-- 12619696 -->
<g id="node35" class="node">
<title>12619696</title>
<path fill="none" stroke="green" d="M753,-417.25C753,-417.25 783,-417.25 783,-417.25 789,-417.25 795,-423.25 795,-429.25 795,-429.25 795,-441.25 795,-441.25 795,-447.25 789,-453.25 783,-453.25 783,-453.25 753,-453.25 753,-453.25 747,-453.25 741,-447.25 741,-441.25 741,-441.25 741,-429.25 741,-429.25 741,-423.25 747,-417.25 753,-417.25"/>
<text text-anchor="middle" x="767.62" y="-429.95" font-family="Times New Roman,serif" font-size="14.00">huy</text>
</g>
<!-- 12619760&#45;&gt;12619696 -->
<g id="edge33" class="edge">
<title>12619760:NO&#45;&gt;12619696</title>
<path fill="none" stroke="red" d="M737,-495.5C737,-484.13 741.54,-472.78 747.15,-463.11"/>
<polygon fill="red" stroke="red" points="749.91,-465.27 752.4,-454.97 744.04,-461.47 749.91,-465.27"/>
</g>
<!-- 12619440 -->
<g id="node37" class="node">
<title>12619440</title>
<path fill="none" stroke="green" d="M788,-501.75C788,-501.75 818,-501.75 818,-501.75 824,-501.75 830,-507.75 830,-513.75 830,-513.75 830,-525.75 830,-525.75 830,-531.75 824,-537.75 818,-537.75 818,-537.75 788,-537.75 788,-537.75 782,-537.75 776,-531.75 776,-525.75 776,-525.75 776,-513.75 776,-513.75 776,-507.75 782,-501.75 788,-501.75"/>
<text text-anchor="middle" x="802.88" y="-514.45" font-family="Times New Roman,serif" font-size="14.00">frige</text>
</g>
<!-- 12619408&#45;&gt;12619440 -->
<g id="edge35" class="edge">
<title>12619408:YES&#45;&gt;12619440</title>
<path fill="none" stroke="green" d="M803,-580C803,-570.09 803,-559.25 803,-549.58"/>
<polygon fill="green" stroke="green" points="806.5,-549.63 803,-539.63 799.5,-549.63 806.5,-549.63"/>
</g>
<!-- 12620080 -->
<g id="node38" class="node">
<title>12620080</title>
<path fill="none" stroke="green" d="M860.5,-496C860.5,-496 933.5,-496 933.5,-496 939.5,-496 945.5,-502 945.5,-508 945.5,-508 945.5,-531.5 945.5,-531.5 945.5,-537.5 939.5,-543.5 933.5,-543.5 933.5,-543.5 860.5,-543.5 860.5,-543.5 854.5,-543.5 848.5,-537.5 848.5,-531.5 848.5,-531.5 848.5,-508 848.5,-508 848.5,-502 854.5,-496 860.5,-496"/>
<text text-anchor="middle" x="897" y="-526.2" font-family="Times New Roman,serif" font-size="14.00">made of paper</text>
<polyline fill="none" stroke="green" points="848.5,-519.75 945.5,-519.75"/>
<text text-anchor="middle" x="874.12" y="-502.45" font-family="Times New Roman,serif" font-size="14.00">YES</text>
<polyline fill="none" stroke="green" points="899.75,-496 899.75,-519.75"/>
<text text-anchor="middle" x="922.38" y="-502.45" font-family="Times New Roman,serif" font-size="14.00">NO</text>
</g>
<!-- 12619408&#45;&gt;12620080 -->
<g id="edge36" class="edge">
<title>12619408:NO&#45;&gt;12620080</title>
<path fill="none" stroke="red" d="M869,-592.25C886.47,-592.25 893.39,-573.51 895.99,-555.22"/>
<polygon fill="red" stroke="red" points="899.47,-555.57 896.97,-545.27 892.5,-554.88 899.47,-555.57"/>
</g>
<!-- 12619376 -->
<g id="node39" class="node">
<title>12619376</title>
<path fill="none" stroke="green" d="M842,-417.25C842,-417.25 872,-417.25 872,-417.25 878,-417.25 884,-423.25 884,-429.25 884,-429.25 884,-441.25 884,-441.25 884,-447.25 878,-453.25 872,-453.25 872,-453.25 842,-453.25 842,-453.25 836,-453.25 830,-447.25 830,-441.25 830,-441.25 830,-429.25 830,-429.25 830,-423.25 836,-417.25 842,-417.25"/>
<text text-anchor="middle" x="856.62" y="-429.95" font-family="Times New Roman,serif" font-size="14.00">book</text>
</g>
<!-- 12620080&#45;&gt;12619376 -->
<g id="edge37" class="edge">
<title>12620080:YES&#45;&gt;12619376</title>
<path fill="none" stroke="green" d="M874,-495.5C874,-485.04 871.52,-473.93 868.46,-464.19"/>
<polygon fill="green" stroke="green" points="871.82,-463.21 865.21,-454.94 865.22,-465.53 871.82,-463.21"/>
</g>
<!-- 12619600 -->
<g id="node40" class="node">
<title>12619600</title>
<path fill="none" stroke="green" d="M914,-411.5C914,-411.5 1092,-411.5 1092,-411.5 1098,-411.5 1104,-417.5 1104,-423.5 1104,-423.5 1104,-447 1104,-447 1104,-453 1098,-459 1092,-459 1092,-459 914,-459 914,-459 908,-459 902,-453 902,-447 902,-447 902,-423.5 902,-423.5 902,-417.5 908,-411.5 914,-411.5"/>
<text text-anchor="middle" x="1003" y="-441.7" font-family="Times New Roman,serif" font-size="14.00">size smaller then one nanao meter</text>
<polyline fill="none" stroke="green" points="902,-435.25 1104,-435.25"/>
<text text-anchor="middle" x="953.62" y="-417.95" font-family="Times New Roman,serif" font-size="14.00">YES</text>
<polyline fill="none" stroke="green" points="1005.25,-411.5 1005.25,-435.25"/>
<text text-anchor="middle" x="1054.38" y="-417.95" font-family="Times New Roman,serif" font-size="14.00">NO</text>
</g>
<!-- 12620080&#45;&gt;12619600 -->
<g id="edge38" class="edge">
<title>12620080:NO&#45;&gt;12619600</title>
<path fill="none" stroke="red" d="M946,-507.75C967.2,-507.75 981.79,-488.3 990.9,-469.68"/>
<polygon fill="red" stroke="red" points="994.05,-471.21 994.91,-460.65 987.65,-468.37 994.05,-471.21"/>
</g>
<!-- 12619280 -->
<g id="node41" class="node">
<title>12619280</title>
<path fill="none" stroke="green" d="M915.75,-327C915.75,-327 970.25,-327 970.25,-327 976.25,-327 982.25,-333 982.25,-339 982.25,-339 982.25,-362.5 982.25,-362.5 982.25,-368.5 976.25,-374.5 970.25,-374.5 970.25,-374.5 915.75,-374.5 915.75,-374.5 909.75,-374.5 903.75,-368.5 903.75,-362.5 903.75,-362.5 903.75,-339 903.75,-339 903.75,-333 909.75,-327 915.75,-327"/>
<text text-anchor="middle" x="943" y="-357.2" font-family="Times New Roman,serif" font-size="14.00">in core</text>
<polyline fill="none" stroke="green" points="903.75,-350.75 982.25,-350.75"/>
<text text-anchor="middle" x="924.88" y="-333.45" font-family="Times New Roman,serif" font-size="14.00">YES</text>
<polyline fill="none" stroke="green" points="946,-327 946,-350.75"/>
<text text-anchor="middle" x="964.12" y="-333.45" font-family="Times New Roman,serif" font-size="14.00">NO</text>
</g>
<!-- 12619600&#45;&gt;12619280 -->
<g id="edge39" class="edge">
<title>12619600:YES&#45;&gt;12619280</title>
<path fill="none" stroke="green" d="M954,-411C954,-402.82 952.97,-394.11 951.55,-385.96"/>
<polygon fill="green" stroke="green" points="955.03,-385.52 949.63,-376.41 948.17,-386.9 955.03,-385.52"/>
</g>
<!-- 12620048 -->
<g id="node44" class="node">
<title>12620048</title>
<path fill="none" stroke="green" d="M1037.75,-327C1037.75,-327 1092.25,-327 1092.25,-327 1098.25,-327 1104.25,-333 1104.25,-339 1104.25,-339 1104.25,-362.5 1104.25,-362.5 1104.25,-368.5 1098.25,-374.5 1092.25,-374.5 1092.25,-374.5 1037.75,-374.5 1037.75,-374.5 1031.75,-374.5 1025.75,-368.5 1025.75,-362.5 1025.75,-362.5 1025.75,-339 1025.75,-339 1025.75,-333 1031.75,-327 1037.75,-327"/>
<text text-anchor="middle" x="1065" y="-357.2" font-family="Times New Roman,serif" font-size="14.00">car</text>
<polyline fill="none" stroke="green" points="1025.75,-350.75 1104.25,-350.75"/>
<text text-anchor="middle" x="1046.88" y="-333.45" font-family="Times New Roman,serif" font-size="14.00">YES</text>
<polyline fill="none" stroke="green" points="1068,-327 1068,-350.75"/>
<text text-anchor="middle" x="1086.12" y="-333.45" font-family="Times New Roman,serif" font-size="14.00">NO</text>
</g>
<!-- 12619600&#45;&gt;12620048 -->
<g id="edge42" class="edge">
<title>12619600:NO&#45;&gt;12620048</title>
<path fill="none" stroke="red" d="M1054,-411C1054,-402.82 1055.03,-394.11 1056.45,-385.96"/>
<polygon fill="red" stroke="red" points="1059.83,-386.9 1058.37,-376.41 1052.97,-385.52 1059.83,-386.9"/>
</g>
<!-- 12619792 -->
<g id="node42" class="node">
<title>12619792</title>
<path fill="none" stroke="green" d="M874,-248.25C874,-248.25 904,-248.25 904,-248.25 910,-248.25 916,-254.25 916,-260.25 916,-260.25 916,-272.25 916,-272.25 916,-278.25 910,-284.25 904,-284.25 904,-284.25 874,-284.25 874,-284.25 868,-284.25 862,-278.25 862,-272.25 862,-272.25 862,-260.25 862,-260.25 862,-254.25 868,-248.25 874,-248.25"/>
<text text-anchor="middle" x="888.75" y="-260.95" font-family="Times New Roman,serif" font-size="14.00">proton</text>
</g>
<!-- 12619280&#45;&gt;12619792 -->
<g id="edge40" class="edge">
<title>12619280:YES&#45;&gt;12619792</title>
<path fill="none" stroke="green" d="M925,-326.5C925,-314.67 919.7,-303.2 913.16,-293.55"/>
<polygon fill="green" stroke="green" points="916.1,-291.63 907.28,-285.76 910.52,-295.85 916.1,-291.63"/>
</g>
<!-- 12619984 -->
<g id="node43" class="node">
<title>12619984</title>
<path fill="none" stroke="green" d="M945.88,-248.25C945.88,-248.25 982.12,-248.25 982.12,-248.25 988.12,-248.25 994.12,-254.25 994.12,-260.25 994.12,-260.25 994.12,-272.25 994.12,-272.25 994.12,-278.25 988.12,-284.25 982.12,-284.25 982.12,-284.25 945.88,-284.25 945.88,-284.25 939.88,-284.25 933.88,-278.25 933.88,-272.25 933.88,-272.25 933.88,-260.25 933.88,-260.25 933.88,-254.25 939.88,-248.25 945.88,-248.25"/>
<text text-anchor="middle" x="964" y="-260.95" font-family="Times New Roman,serif" font-size="14.00">electron</text>
</g>
<!-- 12619280&#45;&gt;12619984 -->
<g id="edge41" class="edge">
<title>12619280:NO&#45;&gt;12619984</title>
<path fill="none" stroke="red" d="M964,-326.5C964,-316.59 964,-305.75 964,-296.08"/>
<polygon fill="red" stroke="red" points="967.5,-296.13 964,-286.13 960.5,-296.13 967.5,-296.13"/>
</g>
<!-- 12620144 -->
<g id="node45" class="node">
<title>12620144</title>
<path fill="none" stroke="green" d="M1024,-248.25C1024,-248.25 1070,-248.25 1070,-248.25 1076,-248.25 1082,-254.25 1082,-260.25 1082,-260.25 1082,-272.25 1082,-272.25 1082,-278.25 1076,-284.25 1070,-284.25 1070,-284.25 1024,-284.25 1024,-284.25 1018,-284.25 1012,-278.25 1012,-272.25 1012,-272.25 1012,-260.25 1012,-260.25 1012,-254.25 1018,-248.25 1024,-248.25"/>
<text text-anchor="middle" x="1047" y="-260.95" font-family="Times New Roman,serif" font-size="14.00">Mersedes</text>
</g>
<!-- 12620048&#45;&gt;12620144 -->
<g id="edge43" class="edge">
<title>12620048:YES&#45;&gt;12620144</title>
<path fill="none" stroke="green" d="M1047,-326.5C1047,-316.59 1047,-305.75 1047,-296.08"/>
<polygon fill="green" stroke="green" points="1050.5,-296.13 1047,-286.13 1043.5,-296.13 1050.5,-296.13"/>
</g>
<!-- 12619312 -->
<g id="node46" class="node">
<title>12619312</title>
<path fill="none" stroke="green" d="M1112.5,-242.5C1112.5,-242.5 1179.5,-242.5 1179.5,-242.5 1185.5,-242.5 1191.5,-248.5 1191.5,-254.5 1191.5,-254.5 1191.5,-278 1191.5,-278 1191.5,-284 1185.5,-290 1179.5,-290 1179.5,-290 1112.5,-290 1112.5,-290 1106.5,-290 1100.5,-284 1100.5,-278 1100.5,-278 1100.5,-254.5 1100.5,-254.5 1100.5,-248.5 1106.5,-242.5 1112.5,-242.5"/>
<text text-anchor="middle" x="1146" y="-272.7" font-family="Times New Roman,serif" font-size="14.00">have a screan</text>
<polyline fill="none" stroke="green" points="1100.5,-266.25 1191.5,-266.25"/>
<text text-anchor="middle" x="1124.62" y="-248.95" font-family="Times New Roman,serif" font-size="14.00">YES</text>
<polyline fill="none" stroke="green" points="1148.75,-242.5 1148.75,-266.25"/>
<text text-anchor="middle" x="1169.88" y="-248.95" font-family="Times New Roman,serif" font-size="14.00">NO</text>
</g>
<!-- 12620048&#45;&gt;12619312 -->
<g id="edge44" class="edge">
<title>12620048:NO&#45;&gt;12619312</title>
<path fill="none" stroke="red" d="M1105,-338.75C1123.93,-338.75 1134.24,-319.66 1139.79,-301.2"/>
<polygon fill="red" stroke="red" points="1143.13,-302.29 1142.22,-291.73 1136.35,-300.55 1143.13,-302.29"/>
</g>
<!-- 12630160 -->
<g id="node47" class="node">
<title>12630160</title>
<path fill="none" stroke="green" d="M1080,-163.75C1080,-163.75 1110,-163.75 1110,-163.75 1116,-163.75 1122,-169.75 1122,-175.75 1122,-175.75 1122,-187.75 1122,-187.75 1122,-193.75 1116,-199.75 1110,-199.75 1110,-199.75 1080,-199.75 1080,-199.75 1074,-199.75 1068,-193.75 1068,-187.75 1068,-187.75 1068,-175.75 1068,-175.75 1068,-169.75 1074,-163.75 1080,-163.75"/>
<text text-anchor="middle" x="1094.62" y="-176.45" font-family="Times New Roman,serif" font-size="14.00">laptop</text>
</g>
<!-- 12619312&#45;&gt;12630160 -->
<g id="edge45" class="edge">
<title>12619312:YES&#45;&gt;12630160</title>
<path fill="none" stroke="green" d="M1125,-242C1125,-230.62 1120.54,-219.21 1115.06,-209.48"/>
<polygon fill="green" stroke="green" points="1118.21,-207.91 1109.93,-201.3 1112.28,-211.63 1118.21,-207.91"/>
</g>
<!-- 12629616 -->
<g id="node48" class="node">
<title>12629616</title>
<path fill="none" stroke="green" d="M1152.5,-158C1152.5,-158 1249.5,-158 1249.5,-158 1255.5,-158 1261.5,-164 1261.5,-170 1261.5,-170 1261.5,-193.5 1261.5,-193.5 1261.5,-199.5 1255.5,-205.5 1249.5,-205.5 1249.5,-205.5 1152.5,-205.5 1152.5,-205.5 1146.5,-205.5 1140.5,-199.5 1140.5,-193.5 1140.5,-193.5 1140.5,-170 1140.5,-170 1140.5,-164 1146.5,-158 1152.5,-158"/>
<text text-anchor="middle" x="1201" y="-188.2" font-family="Times New Roman,serif" font-size="14.00">Russin cinema star</text>
<polyline fill="none" stroke="green" points="1140.5,-181.75 1261.5,-181.75"/>
<text text-anchor="middle" x="1172.12" y="-164.45" font-family="Times New Roman,serif" font-size="14.00">YES</text>
<polyline fill="none" stroke="green" points="1203.75,-158 1203.75,-181.75"/>
<text text-anchor="middle" x="1232.38" y="-164.45" font-family="Times New Roman,serif" font-size="14.00">NO</text>
</g>
<!-- 12619312&#45;&gt;12629616 -->
<g id="edge46" class="edge">
<title>12619312:NO&#45;&gt;12629616</title>
<path fill="none" stroke="red" d="M1170,-242C1170,-232.94 1172.88,-223.9 1176.89,-215.7"/>
<polygon fill="red" stroke="red" points="1179.84,-217.59 1181.69,-207.16 1173.74,-214.16 1179.84,-217.59"/>
</g>
<!-- 12630384 -->
<g id="node49" class="node">
<title>12630384</title>
<path fill="none" stroke="green" d="M1134.88,-79.25C1134.88,-79.25 1165.12,-79.25 1165.12,-79.25 1171.12,-79.25 1177.12,-85.25 1177.12,-91.25 1177.12,-91.25 1177.12,-103.25 1177.12,-103.25 1177.12,-109.25 1171.12,-115.25 1165.12,-115.25 1165.12,-115.25 1134.88,-115.25 1134.88,-115.25 1128.88,-115.25 1122.88,-109.25 1122.88,-103.25 1122.88,-103.25 1122.88,-91.25 1122.88,-91.25 1122.88,-85.25 1128.88,-79.25 1134.88,-79.25"/>
<text text-anchor="middle" x="1150" y="-91.95" font-family="Times New Roman,serif" font-size="14.00">Nagiev</text>
</g>
<!-- 12629616&#45;&gt;12630384 -->
<g id="edge47" class="edge">
<title>12629616:YES&#45;&gt;12630384</title>
<path fill="none" stroke="green" d="M1172,-157.5C1172,-146.74 1168.77,-135.52 1164.79,-125.79"/>
<polygon fill="green" stroke="green" points="1168.06,-124.54 1160.73,-116.9 1161.7,-127.45 1168.06,-124.54"/>
</g>
<!-- 12630192 -->
<g id="node50" class="node">
<title>12630192</title>
<path fill="none" stroke="green" d="M1207.38,-73.5C1207.38,-73.5 1300.62,-73.5 1300.62,-73.5 1306.62,-73.5 1312.62,-79.5 1312.62,-85.5 1312.62,-85.5 1312.62,-109 1312.62,-109 1312.62,-115 1306.62,-121 1300.62,-121 1300.62,-121 1207.38,-121 1207.38,-121 1201.38,-121 1195.38,-115 1195.38,-109 1195.38,-109 1195.38,-85.5 1195.38,-85.5 1195.38,-79.5 1201.38,-73.5 1207.38,-73.5"/>
<text text-anchor="middle" x="1254" y="-103.7" font-family="Times New Roman,serif" font-size="14.00">have form of eggs</text>
<polyline fill="none" stroke="green" points="1195.38,-97.25 1312.62,-97.25"/>
<text text-anchor="middle" x="1226" y="-79.95" font-family="Times New Roman,serif" font-size="14.00">YES</text>
<polyline fill="none" stroke="green" points="1256.62,-73.5 1256.62,-97.25"/>
<text text-anchor="middle" x="1284.25" y="-79.95" font-family="Times New Roman,serif" font-size="14.00">NO</text>
</g>
<!-- 12629616&#45;&gt;12630192 -->
<g id="edge48" class="edge">
<title>12629616:NO&#45;&gt;12630192</title>
<path fill="none" stroke="red" d="M1232,-157.5C1232,-148.98 1234.03,-140.17 1236.85,-132.04"/>
<polygon fill="red" stroke="red" points="1240.06,-133.44 1240.51,-122.86 1233.55,-130.85 1240.06,-133.44"/>
</g>
<!-- 12629712 -->
<g id="node51" class="node">
<title>12629712</title>
<path fill="none" stroke="green" d="M1199,-0.5C1199,-0.5 1229,-0.5 1229,-0.5 1235,-0.5 1241,-6.5 1241,-12.5 1241,-12.5 1241,-24.5 1241,-24.5 1241,-30.5 1235,-36.5 1229,-36.5 1229,-36.5 1199,-36.5 1199,-36.5 1193,-36.5 1187,-30.5 1187,-24.5 1187,-24.5 1187,-12.5 1187,-12.5 1187,-6.5 1193,-0.5 1199,-0.5"/>
<text text-anchor="middle" x="1213.75" y="-13.2" font-family="Times New Roman,serif" font-size="14.00">balls</text>
</g>
<!-- 12630192&#45;&gt;12629712 -->
<g id="edge49" class="edge">
<title>12630192:YES&#45;&gt;12629712</title>
<path fill="none" stroke="green" d="M1226,-73C1226,-64.69 1224.6,-55.82 1222.76,-47.74"/>
<polygon fill="green" stroke="green" points="1226.16,-46.88 1220.24,-38.09 1219.38,-48.65 1226.16,-46.88"/>
</g>
<!-- 12629552 -->
<g id="node52" class="node">
<title>12629552</title>
<path fill="none" stroke="green" d="M1271.12,-0.5C1271.12,-0.5 1320.88,-0.5 1320.88,-0.5 1326.88,-0.5 1332.88,-6.5 1332.88,-12.5 1332.88,-12.5 1332.88,-24.5 1332.88,-24.5 1332.88,-30.5 1326.88,-36.5 1320.88,-36.5 1320.88,-36.5 1271.12,-36.5 1271.12,-36.5 1265.12,-36.5 1259.12,-30.5 1259.12,-24.5 1259.12,-24.5 1259.12,-12.5 1259.12,-12.5 1259.12,-6.5 1265.12,-0.5 1271.12,-0.5"/>
<text text-anchor="middle" x="1296" y="-13.2" font-family="Times New Roman,serif" font-size="14.00">Bogdanov</text>
</g>
<!-- 12630192&#45;&gt;12629552 -->
<g id="edge50" class="edge">
<title>12630192:NO&#45;&gt;12629552</title>
<path fill="none" stroke="red" d="M1284,-73C1284,-64.69 1285.4,-55.82 1287.24,-47.74"/>
<polygon fill="red" stroke="red" points="1290.62,-48.65 1289.76,-38.09 1283.84,-46.88 1290.62,-48.65"/>
</g>
</g>
</svg>
